<?xml version="1.0" standalone="no"?><!DOCTYPE svg PUBLIC "-//W3C//DTD SVG 1.1//EN" "http://www.w3.org/Graphics/SVG/1.1/DTD/svg11.dtd"><svg class="icon" height="512" viewBox="0 0 1024 1024" version="1.1" xmlns="http://www.w3.org/2000/svg"><path d="M496.4096 832.6656L150.36416 475.27424l88.704-72.192 200.09472 159.34976c82.00192-99.01056 264.04352-295.49568 515.19488-451.75808l21.14048 49.50528c-230.52288 215.05024-419.27168 517.76512-479.08864 672.4864z m436.92032-390.23616A430.34112 430.34112 0 0 1 938.99776 512c0 235.8272-191.17056 426.99776-426.99776 426.99776-235.82208 0-426.99776-191.17056-426.99776-426.99776 0-235.82208 191.17568-426.99776 426.99776-426.99776 56.9344 0 111.2576 11.17184 160.9216 31.39584V30.98112C621.2352 13.6704 567.2704 4.91008 512 4.91008c-68.42368 0-134.84032 13.41952-197.40672 39.8848-60.40064 25.5488-114.62144 62.10048-161.16224 108.63616-46.5408 46.54592-83.09248 100.76672-108.63616 161.16224C18.3296 377.15968 4.91008 443.57632 4.91008 512c0 68.42368 13.41952 134.84032 39.8848 197.40672 25.5488 60.40064 62.10048 114.62144 108.63616 161.16224 46.54592 46.54592 100.76672 83.0976 161.16224 108.63616 62.56128 26.4704 128.97792 39.8848 197.40672 39.8848s134.84032-13.4144 197.41184-39.8848c60.3904-25.53856 114.6112-62.09536 161.15712-108.63616 46.54592-46.54592 83.0976-100.76672 108.63616-161.15712 26.4704-62.57152 39.8848-128.98816 39.8848-197.41184 0-23.44448-1.57184-46.66368-4.71552-69.57056h-81.04448z" fill="#2aa515" /></svg>